<svg width="721" height="1024" viewBox="0 0 721 1024" fill="none" xmlns="http://www.w3.org/2000/svg">
<g clip-path="url(#clip0_11_180)">
<rect width="720.265" height="1023.91" fill="url(#paint0_linear_11_180)"/>
<g clip-path="url(#clip1_11_180)">
<rect width="720" height="1" transform="translate(7.89532 330.837) rotate(-12)" fill="white" fill-opacity="0.1"/>
<rect width="720" height="1" transform="translate(8.10321 266.46) rotate(12)" fill="white" fill-opacity="0.1"/>
<rect width="720" height="1" transform="translate(7.89532 757.464) rotate(-12)" fill="white" fill-opacity="0.1"/>
<rect width="720" height="1" transform="translate(8.10321 692.097) rotate(12)" fill="white" fill-opacity="0.1"/>
<mask id="path-1-inside-1_11_180" fill="white">
<path d="M79.7349 286.997C79.7349 233.979 122.714 191 175.732 191C228.749 191 271.729 233.979 271.729 286.997C271.729 340.015 228.749 382.994 175.732 382.994C122.714 382.994 79.7349 340.015 79.7349 286.997Z"/>
</mask>
<path d="M79.7349 286.997M271.729 286.997M271.729 286.997M79.7349 286.997M175.732 191M271.729 286.997M175.732 382.994M79.7349 286.997M175.732 382.994V382.341C123.075 382.341 80.3879 339.654 80.3879 286.997H79.7349H79.0819C79.0819 340.375 122.354 383.647 175.732 383.647V382.994ZM271.729 286.997H271.076C271.076 339.654 228.389 382.341 175.732 382.341V382.994V383.647C229.11 383.647 272.382 340.375 272.382 286.997H271.729ZM175.732 191V191.653C228.389 191.653 271.076 234.34 271.076 286.997H271.729H272.382C272.382 233.619 229.11 190.347 175.732 190.347V191ZM175.732 191V190.347C122.354 190.347 79.0819 233.619 79.0819 286.997H79.7349H80.3879C80.3879 234.34 123.075 191.653 175.732 191.653V191Z" fill="white" fill-opacity="0.1" mask="url(#path-1-inside-1_11_180)"/>
<mask id="path-3-inside-2_11_180" fill="white">
<path d="M407.735 842.999C407.735 772.307 465.042 715 535.734 715C606.426 715 663.733 772.307 663.733 842.999C663.733 913.691 606.426 970.999 535.734 970.999C465.042 970.999 407.735 913.691 407.735 842.999Z"/>
</mask>
<path d="M407.735 842.999M663.733 842.999M663.733 842.999M407.735 842.999M535.734 715M663.733 842.999M535.734 970.999M407.735 842.999M535.734 970.999V970.346C465.403 970.346 408.388 913.331 408.388 842.999H407.735H407.082C407.082 914.052 464.682 971.652 535.734 971.652V970.999ZM663.733 842.999H663.08C663.08 913.331 606.066 970.346 535.734 970.346V970.999V971.652C606.787 971.652 664.386 914.052 664.386 842.999H663.733ZM535.734 715V715.653C606.066 715.653 663.08 772.668 663.08 842.999H663.733H664.386C664.386 771.947 606.787 714.347 535.734 714.347V715ZM535.734 715V714.347C464.682 714.347 407.082 771.947 407.082 842.999H407.735H408.388C408.388 772.668 465.403 715.653 535.734 715.653V715Z" fill="white" fill-opacity="0.05" mask="url(#path-3-inside-2_11_180)"/>
<rect width="0.999915" height="1023.91" transform="translate(180.066)" fill="white" fill-opacity="0.1"/>
<rect width="0.999915" height="1023.91" transform="translate(360.133)" fill="white" fill-opacity="0.1"/>
<rect width="0.999915" height="1023.91" transform="translate(540.199)" fill="white" fill-opacity="0.1"/>
<mask id="path-5-inside-3_11_180" fill="white">
<path d="M412.2 319.978C412.2 284.632 440.853 255.978 476.199 255.978C511.545 255.978 540.199 284.632 540.199 319.978C540.199 355.324 511.545 383.977 476.199 383.977C440.853 383.977 412.2 355.324 412.2 319.978Z"/>
</mask>
<path d="M412.2 319.978M540.199 319.978M540.199 319.978M412.2 319.978M476.199 255.978M540.199 319.978M476.199 383.977M412.2 319.978M476.199 383.977V383.324C441.214 383.324 412.853 354.963 412.853 319.978H412.2H411.547C411.547 355.684 440.492 384.63 476.199 384.63V383.977ZM540.199 319.978H539.546C539.546 354.963 511.185 383.324 476.199 383.324V383.977V384.63C511.906 384.63 540.852 355.684 540.852 319.978H540.199ZM476.199 255.978V256.631C511.185 256.631 539.546 284.992 539.546 319.978H540.199H540.852C540.852 284.271 511.906 255.325 476.199 255.325V255.978ZM476.199 255.978V255.325C440.492 255.325 411.547 284.271 411.547 319.978H412.2H412.853C412.853 284.992 441.214 256.631 476.199 256.631V255.978Z" fill="white" fill-opacity="0.1" mask="url(#path-5-inside-3_11_180)"/>
<mask id="path-7-inside-4_11_180" fill="white">
<path d="M180.066 586.618C180.066 533.601 223.046 490.621 276.063 490.621C329.081 490.621 372.06 533.601 372.06 586.618C372.06 639.636 329.081 682.615 276.063 682.615C223.046 682.615 180.066 639.636 180.066 586.618Z"/>
</mask>
<path d="M180.066 586.618M372.06 586.618M372.06 586.618M180.066 586.618M276.063 490.621M372.06 586.618M276.063 682.615M180.066 586.618M276.063 682.615V681.962C223.406 681.962 180.719 639.275 180.719 586.618H180.066H179.413C179.413 639.997 222.685 683.268 276.063 683.268V682.615ZM372.06 586.618H371.407C371.407 639.275 328.72 681.962 276.063 681.962V682.615V683.268C329.441 683.268 372.713 639.997 372.713 586.618H372.06ZM276.063 490.621V491.274C328.72 491.274 371.407 533.961 371.407 586.618H372.06H372.713C372.713 533.24 329.441 489.968 276.063 489.968V490.621ZM276.063 490.621V489.968C222.685 489.968 179.413 533.24 179.413 586.618H180.066H180.719C180.719 533.961 223.406 491.274 276.063 491.274V490.621Z" fill="white" fill-opacity="0.1" mask="url(#path-7-inside-4_11_180)"/>
<mask id="path-9-inside-5_11_180" fill="white">
<path d="M232.133 511.956C232.133 441.264 289.44 383.957 360.133 383.957C430.825 383.957 488.132 441.264 488.132 511.956C488.132 582.648 430.825 639.956 360.133 639.956C289.44 639.956 232.133 582.648 232.133 511.956Z"/>
</mask>
<path d="M232.133 511.956M488.132 511.956M488.132 511.956M232.133 511.956M360.133 383.957M488.132 511.956M360.133 639.956M232.133 511.956M360.133 639.956V639.303C289.801 639.303 232.786 582.288 232.786 511.956H232.133H231.48C231.48 583.009 289.08 640.609 360.133 640.609V639.956ZM488.132 511.956H487.479C487.479 582.288 430.464 639.303 360.133 639.303V639.956V640.609C431.185 640.609 488.785 583.009 488.785 511.956H488.132ZM360.133 383.957V384.61C430.464 384.61 487.479 441.625 487.479 511.956H488.132H488.785C488.785 440.904 431.185 383.304 360.133 383.304V383.957ZM360.133 383.957V383.304C289.08 383.304 231.48 440.904 231.48 511.956H232.133H232.786C232.786 441.625 289.801 384.61 360.133 384.61V383.957Z" fill="white" fill-opacity="0.05" mask="url(#path-9-inside-5_11_180)"/>
<g opacity="0.1" filter="url(#filter0_f_11_180)">
<path d="M528.266 1.52588e-05C528.266 -106.038 614.227 -191.999 720.265 -191.999C826.303 -191.999 912.264 -106.038 912.264 1.52588e-05C912.264 106.038 826.303 191.999 720.265 191.999C614.227 191.999 528.266 106.038 528.266 1.52588e-05Z" fill="white"/>
</g>
<g opacity="0.1" filter="url(#filter1_f_11_180)">
<path d="M-191.999 1023.91C-191.999 917.875 -106.038 831.914 -4.57764e-05 831.914C106.038 831.914 191.999 917.875 191.999 1023.91C191.999 1129.95 106.038 1215.91 -4.57764e-05 1215.91C-106.038 1215.91 -191.999 1129.95 -191.999 1023.91Z" fill="white"/>
</g>
</g>
</g>
<defs>
<filter id="filter0_f_11_180" x="400.266" y="-319.999" width="639.998" height="639.998" filterUnits="userSpaceOnUse" color-interpolation-filters="sRGB">
<feFlood flood-opacity="0" result="BackgroundImageFix"/>
<feBlend mode="normal" in="SourceGraphic" in2="BackgroundImageFix" result="shape"/>
<feGaussianBlur stdDeviation="64" result="effect1_foregroundBlur_11_180"/>
</filter>
<filter id="filter1_f_11_180" x="-319.999" y="703.914" width="639.998" height="639.998" filterUnits="userSpaceOnUse" color-interpolation-filters="sRGB">
<feFlood flood-opacity="0" result="BackgroundImageFix"/>
<feBlend mode="normal" in="SourceGraphic" in2="BackgroundImageFix" result="shape"/>
<feGaussianBlur stdDeviation="64" result="effect1_foregroundBlur_11_180"/>
</filter>
<linearGradient id="paint0_linear_11_180" x1="0" y1="0" x2="963.673" y2="677.89" gradientUnits="userSpaceOnUse">
<stop stop-color="#2C5282"/>
<stop offset="0.0833333" stop-color="#224E82"/>
<stop offset="0.166667" stop-color="#245185"/>
<stop offset="0.25" stop-color="#255388"/>
<stop offset="0.333333" stop-color="#27558B"/>
<stop offset="0.416667" stop-color="#28588E"/>
<stop offset="0.5" stop-color="#2A5A91"/>
<stop offset="0.571429" stop-color="#28568B"/>
<stop offset="0.642857" stop-color="#255284"/>
<stop offset="0.714286" stop-color="#234D7E"/>
<stop offset="0.785714" stop-color="#214978"/>
<stop offset="0.857143" stop-color="#1E4572"/>
<stop offset="0.928571" stop-color="#1C416C"/>
<stop offset="1" stop-color="#1A3D66"/>
</linearGradient>
<clipPath id="clip0_11_180">
<rect width="720.265" height="1023.91" fill="white"/>
</clipPath>
<clipPath id="clip1_11_180">
<rect width="720.265" height="1023.91" fill="white"/>
</clipPath>
</defs>
</svg>
